<svg xmlns="http://www.w3.org/2000/svg" width="236" height="214" viewBox="0 0 236 214">
<g>
<path d="M 84.46 186.07 C83.34,187.88 81.18,186.97 80.16,184.25 C79.59,182.74 76.58,175.43 73.46,168.00 C65.64,149.36 64.00,144.88 64.00,142.26 C64.00,138.71 60.40,139.41 51.97,144.62 C47.86,147.16 43.79,149.86 42.91,150.62 C41.10,152.21 29.44,158.00 28.05,158.00 C26.03,158.00 28.33,152.27 31.81,148.68 C37.41,142.88 57.10,129.84 58.50,131.00 C59.74,132.03 62.01,130.43 61.98,128.55 C61.98,127.97 61.49,128.18 60.91,129.00 C59.97,130.33 59.89,130.33 60.27,129.00 C60.73,127.36 66.87,127.21 67.91,128.81 C68.24,129.30 70.30,130.90 72.50,132.36 C84.84,140.55 113.18,162.90 112.54,163.93 C112.27,164.37 105.97,169.32 98.54,174.93 C91.11,180.54 84.77,185.56 84.46,186.07 ZM 0.00 0.00 L 236.00 0.00 L 180.75 0.14 C144.03,0.23 128.80,0.55 135.34,1.09 C164.02,3.46 196.08,14.56 198.26,22.89 C198.90,25.34 196.60,26.42 194.95,24.44 C194.29,23.65 193.22,23.00 192.56,23.00 C191.90,23.00 188.88,21.66 185.86,20.02 C160.08,6.06 117.74,0.80 77.00,6.50 C65.23,8.15 41.33,13.53 32.66,16.49 C29.99,17.40 27.59,17.92 27.32,17.65 C27.05,17.38 31.89,15.52 38.08,13.52 C58.04,7.07 79.61,2.63 98.50,1.09 C105.22,0.55 90.69,0.23 54.25,0.14 L 0.00 0.00 ZM 114.00 104.61 L 114.00 120.00 L 107.25 119.85 C95.54,119.59 95.51,119.58 92.64,112.96 C90.30,107.56 90.20,106.79 91.50,104.27 C92.28,102.75 93.18,100.25 93.49,98.72 C93.87,96.84 95.14,95.42 97.43,94.33 C99.29,93.45 101.29,91.66 101.88,90.36 C102.75,88.46 103.73,88.00 106.90,88.00 C107.11,88.00 107.32,88.00 107.52,88.00 C109.87,87.99 111.37,87.99 112.32,88.71 C114.01,89.97 114.00,93.48 114.00,103.15 C114.00,103.62 114.00,104.11 114.00,104.61 ZM 108.77 154.25 C109.68,156.20 105.86,153.67 94.53,144.81 C76.65,130.84 75.10,129.52 74.50,127.83 C74.18,126.92 72.50,125.67 70.76,125.07 L 67.60 123.97 L 70.05 122.23 C72.87,120.24 82.88,120.04 89.52,121.85 C93.47,122.93 93.65,123.19 100.98,138.23 C105.07,146.63 108.58,153.84 108.77,154.25 ZM 151.96 80.37 C149.31,81.21 129.58,81.67 125.00,81.00 C119.37,80.17 116.00,79.02 116.00,77.92 C116.00,77.46 117.06,76.05 118.36,74.79 C120.70,72.53 123.33,68.14 124.39,64.75 C124.76,63.58 125.96,63.00 128.03,63.00 C129.73,63.00 130.87,62.59 130.56,62.09 C130.25,61.59 130.27,60.45 130.61,59.56 C131.09,58.31 131.55,58.21 132.62,59.10 C134.65,60.79 134.30,62.48 132.25,60.89 C130.83,59.79 130.85,59.95 132.40,61.77 C133.45,63.00 134.85,64.00 135.52,64.00 C137.65,64.00 153.57,79.85 151.96,80.37 ZM 88.00 115.12 C88.00,116.18 79.04,115.84 78.35,114.75 C78.09,114.34 78.39,114.00 79.00,114.00 C79.61,114.00 79.84,113.55 79.50,113.00 C79.16,112.45 79.33,112.00 79.87,112.00 C80.42,112.00 81.15,111.09 81.51,109.97 C82.11,108.07 82.32,108.14 85.08,111.08 C86.68,112.80 88.00,114.62 88.00,115.12 Z" fill="rgb(205,173,80)"/>
<path d="M 151.96 80.37 C153.57,79.85 137.65,64.00 135.52,64.00 C134.85,64.00 133.45,63.00 132.40,61.77 C130.85,59.95 130.83,59.79 132.25,60.89 C134.30,62.48 134.65,60.79 132.62,59.10 C131.55,58.21 131.09,58.31 130.61,59.56 C130.27,60.45 130.25,61.59 130.56,62.09 C130.87,62.59 129.73,63.00 128.03,63.00 C125.96,63.00 124.76,63.58 124.39,64.75 C123.33,68.14 120.70,72.53 118.36,74.79 C117.06,76.05 116.00,77.46 116.00,77.92 C116.00,79.02 119.37,80.17 125.00,81.00 C126.37,81.20 129.07,81.30 132.27,81.32 C116.78,81.58 96.77,81.59 90.00,81.13 C84.78,80.79 80.57,80.13 80.66,79.68 C80.99,78.03 114.07,41.16 116.06,40.23 C116.70,39.92 124.35,47.86 136.50,61.44 C140.90,66.35 146.44,72.50 148.80,75.10 C151.30,77.84 152.67,80.09 152.07,80.46 C151.83,80.60 150.40,80.74 148.12,80.86 C149.99,80.72 151.38,80.55 151.96,80.37 ZM 94.50 58.21 C90.10,63.17 84.23,69.73 81.47,72.77 L 76.43 78.31 L 74.87 75.90 C72.61,72.42 70.04,66.78 69.44,63.95 C68.04,57.41 67.09,50.57 67.52,50.14 C67.78,49.88 68.00,49.95 68.00,50.29 C68.00,50.63 70.03,48.85 72.50,46.34 C74.97,43.83 77.00,41.45 77.00,41.06 C77.00,39.39 85.29,37.81 96.73,37.29 C97.17,37.27 97.60,37.25 98.01,37.23 C104.76,36.92 108.62,36.74 109.42,38.22 C110.49,40.19 106.13,45.10 95.95,56.57 C95.48,57.10 95.00,57.65 94.50,58.21 ZM 90.47 116.91 C90.84,118.06 90.77,118.96 90.32,118.90 C89.65,118.82 63.42,113.25 55.25,111.46 C54.01,111.18 53.00,110.49 53.00,109.91 C53.00,109.33 57.11,104.27 62.14,98.68 C71.58,88.18 73.81,86.00 75.18,86.00 C75.94,86.00 89.11,112.61 90.47,116.91 ZM 66.28 89.42 C63.96,92.02 59.13,97.31 55.54,101.18 L 49.02 108.22 L 46.92 103.36 C40.29,88.05 37.26,74.00 40.58,74.00 C41.30,74.00 42.16,74.45 42.50,75.00 C42.84,75.55 44.66,76.00 46.54,76.00 C53.59,76.00 70.50,81.09 70.50,83.20 C70.50,84.03 68.60,86.83 66.28,89.42 ZM 236.00 214.00 L 0.00 214.00 L 41.25 213.89 C79.88,213.78 81.95,213.69 73.79,212.41 C55.81,209.60 37.63,203.17 31.35,197.40 C27.26,193.63 24.12,187.71 27.25,189.66 C27.94,190.09 29.13,190.54 29.90,190.66 C30.67,190.77 31.57,191.30 31.90,191.83 C33.86,194.95 56.37,203.57 69.00,206.03 C77.89,207.76 98.92,209.96 106.75,209.98 C112.01,209.99 113.93,210.34 113.75,211.25 C113.61,211.94 112.15,212.78 110.50,213.12 C108.85,213.46 136.41,213.80 171.75,213.87 ZM 114.00 100.60 C113.99,92.84 113.85,89.86 112.32,88.71 C111.37,87.99 109.87,87.99 107.52,88.00 C107.32,88.00 107.11,88.00 106.90,88.00 C103.73,88.00 102.75,88.46 101.88,90.36 C101.29,91.66 99.29,93.45 97.43,94.33 C95.14,95.42 93.87,96.84 93.49,98.72 C93.18,100.25 92.28,102.75 91.50,104.27 C90.20,106.79 90.30,107.56 92.64,112.96 C92.71,113.11 92.77,113.25 92.83,113.40 C91.40,110.79 89.66,107.10 87.12,101.88 C82.55,92.51 79.06,84.61 79.36,84.31 C79.66,84.01 87.57,84.10 96.95,84.50 L 114.00 85.23 ZM 191.43 16.23 C200.85,21.33 208.16,27.51 213.11,34.68 C215.58,38.25 216.00,39.82 216.00,45.43 C216.00,49.14 215.57,52.00 215.00,52.00 C214.45,52.00 214.00,50.96 214.00,49.69 C214.00,48.42 213.14,46.46 212.09,45.33 C211.04,44.20 209.28,41.51 208.18,39.35 C205.35,33.80 196.80,26.25 187.49,20.88 C189.90,22.10 192.02,23.00 192.56,23.00 C193.22,23.00 194.29,23.65 194.95,24.44 C196.60,26.42 198.90,25.34 198.26,22.89 C197.71,20.79 195.25,18.51 191.43,16.23 ZM 68.62 74.54 C67.83,76.59 62.71,75.97 54.75,72.84 C51.52,71.57 51.08,68.43 54.00,67.50 C55.55,67.01 55.86,66.30 55.38,64.39 C54.95,62.67 55.15,62.01 56.04,62.21 C56.75,62.37 57.66,61.38 58.06,60.00 C58.51,58.49 58.84,58.17 58.90,59.20 C58.96,60.13 60.24,61.48 61.75,62.21 C64.80,63.66 69.54,72.16 68.62,74.54 ZM 20.12 162.92 C22.30,158.85 25.94,154.39 30.85,149.75 C27.94,153.31 26.22,158.00 28.05,158.00 C29.29,158.00 38.82,153.34 42.07,151.23 C41.30,151.79 40.61,152.31 40.00,152.79 C33.14,158.20 25.47,166.32 23.92,169.82 C22.32,173.44 20.35,174.53 18.37,172.89 C16.35,171.21 16.66,169.42 20.12,162.92 ZM 85.77 121.08 C79.59,120.16 72.38,120.59 70.05,122.23 L 67.60 123.97 L 70.76 125.07 C72.50,125.67 74.18,126.92 74.50,127.83 C74.78,128.61 75.25,129.30 77.38,131.15 C76.43,130.45 75.74,130.00 75.57,130.00 C75.25,130.00 71.10,126.96 66.35,123.25 C56.22,115.33 56.89,114.65 71.50,118.02 C76.45,119.16 82.66,120.50 85.29,120.99 C85.45,121.02 85.61,121.05 85.77,121.08 ZM 92.45 146.97 C85.17,141.35 77.51,135.68 72.50,132.36 C70.30,130.90 68.24,129.30 67.91,128.81 C66.87,127.21 60.73,127.36 60.27,129.00 C59.89,130.33 59.97,130.33 60.91,129.00 C61.49,128.18 61.98,127.97 61.98,128.55 C62.01,130.43 59.74,132.03 58.50,131.00 C57.68,130.32 50.64,134.48 43.80,139.21 C44.58,138.65 45.38,138.09 46.19,137.53 C57.15,129.95 57.44,129.49 54.90,123.29 C54.18,121.52 53.90,119.77 54.27,119.39 C55.11,118.56 61.25,122.54 66.00,127.00 C67.93,128.80 71.07,131.35 73.00,132.65 C78.08,136.08 85.44,141.55 92.45,146.97 ZM 88.00 115.12 C88.00,114.62 86.68,112.80 85.08,111.08 C82.32,108.14 82.11,108.07 81.51,109.97 C81.15,111.09 80.42,112.00 79.87,112.00 C79.33,112.00 79.16,112.45 79.50,113.00 C79.84,113.55 79.61,114.00 79.00,114.00 C78.39,114.00 78.09,114.34 78.35,114.75 C79.04,115.84 88.00,116.18 88.00,115.12 ZM 127.00 210.50 C128.07,211.79 127.70,212.00 124.37,211.97 C120.75,211.94 120.63,211.84 122.44,210.47 C124.87,208.63 125.45,208.63 127.00,210.50 ZM 150.00 181.47 C150.00,183.52 147.38,183.43 146.58,181.36 C146.24,180.45 146.17,179.50 146.43,179.23 C147.36,178.30 150.00,179.96 150.00,181.47 ZM 77.00 6.50 C90.36,4.63 103.88,3.94 116.94,4.35 C94.35,3.80 70.10,6.59 46.50,12.83 C40.21,14.49 35.85,15.65 32.92,16.40 C41.80,13.43 65.35,8.13 77.00,6.50 ZM 61.04 140.18 C63.07,139.75 64.00,140.45 64.00,142.26 C64.00,144.04 64.76,146.68 67.70,154.04 C63.53,144.05 62.02,140.90 61.04,140.18 ZM 30.85 16.01 C35.29,14.12 42.38,11.92 50.55,9.80 C46.35,10.95 42.18,12.19 38.08,13.52 C35.28,14.42 32.76,15.30 30.85,16.01 ZM 86.72 2.38 C88.83,2.07 90.87,1.80 92.81,1.58 C96.73,1.12 98.96,0.82 97.98,0.62 C100.61,0.75 100.78,0.91 98.50,1.09 C94.67,1.41 90.73,1.84 86.72,2.38 ZM 136.09 0.62 C134.93,0.82 136.68,1.11 140.00,1.52 C141.30,1.68 142.59,1.85 143.87,2.03 C141.02,1.64 138.16,1.32 135.34,1.09 C133.15,0.91 133.40,0.75 136.09,0.62 ZM 108.77 154.25 C109.04,154.84 109.03,155.05 108.47,154.83 C108.92,154.96 109.01,154.76 108.77,154.25 C108.58,153.84 105.07,146.63 100.98,138.23 C100.84,137.94 100.70,137.66 100.57,137.39 C103.08,142.32 105.92,148.13 108.77,154.25 ZM 42.89 150.64 C42.90,150.63 42.91,150.63 42.91,150.62 C43.79,149.86 47.86,147.16 51.97,144.62 C52.79,144.11 53.57,143.65 54.30,143.23 C50.71,145.37 46.29,148.23 42.89,150.64 ZM 152.57 3.45 C160.33,4.88 167.50,6.68 174.04,8.85 C167.52,6.74 160.16,4.87 152.57,3.45 ZM 92.61 123.23 C91.78,122.52 90.93,122.24 89.73,121.91 C90.66,122.13 91.42,122.32 91.82,122.44 C91.99,122.50 92.26,122.77 92.61,123.23 ZM 99.66 119.52 C101.44,119.72 103.86,119.77 107.25,119.85 C103.84,119.77 101.48,119.82 99.66,119.52 ZM 86.79 138.75 C88.96,140.46 91.51,142.45 94.53,144.81 C95.18,145.33 95.81,145.81 96.41,146.28 C93.26,143.85 89.83,141.17 86.79,138.75 ZM 103.62 151.75 C104.98,152.74 106.05,153.48 106.86,153.99 C106.76,153.93 106.65,153.86 106.53,153.80 C106.09,153.54 105.06,152.81 103.62,151.75 ZM 82.19 186.82 C82.38,186.91 82.58,186.97 82.78,187.00 C82.73,187.00 82.69,187.00 82.65,187.00 C82.50,187.00 82.36,186.95 82.19,186.82 Z" fill="rgb(225,203,118)"/>
<path d="M 152.68 181.73 C151.48,184.61 150.03,186.97 149.44,186.98 C148.86,186.99 145.49,184.62 141.94,181.70 C138.40,178.79 133.48,174.99 131.00,173.25 C128.52,171.52 124.74,168.58 122.60,166.73 C119.38,163.95 118.94,163.16 120.10,162.22 C126.89,156.66 129.52,154.61 136.50,149.45 C140.90,146.19 147.65,141.00 151.50,137.90 C163.76,128.05 177.43,118.15 178.15,118.59 C178.78,118.98 177.05,123.87 172.52,134.50 C170.79,138.55 156.70,172.10 152.68,181.73 ZM 166.59 57.51 C161.41,68.11 156.77,77.02 156.29,77.32 C155.03,78.10 154.31,77.45 146.49,68.51 C142.65,64.11 134.77,55.34 129.00,49.01 L 118.50 37.50 L 126.50 36.87 C130.90,36.53 143.84,35.95 155.25,35.58 C174.20,34.97 176.00,35.05 176.00,36.57 C176.00,37.49 171.76,46.91 166.59,57.51 ZM 215.06 38.05 C216.63,41.02 217.71,44.09 218.25,47.23 C219.21,52.85 219.09,54.14 217.14,59.37 C214.31,66.92 210.11,72.96 204.77,77.15 C191.83,87.32 190.71,88.59 187.65,96.60 C186.16,100.51 184.38,104.47 183.69,105.40 C182.24,107.40 179.65,106.73 178.38,104.02 C177.89,103.00 174.21,98.70 170.20,94.46 C162.10,85.93 159.49,82.42 160.70,81.72 C161.14,81.46 164.20,80.50 167.50,79.58 C170.80,78.67 174.40,77.52 175.50,77.03 C180.45,74.81 197.38,69.93 198.56,70.38 C200.22,71.02 206.24,64.42 209.08,58.85 C210.80,55.46 211.14,53.47 210.73,48.98 C210.25,43.61 208.47,39.09 204.93,34.72 C206.33,36.35 207.45,37.91 208.18,39.35 C209.28,41.51 211.04,44.20 212.09,45.33 C213.14,46.46 214.00,48.42 214.00,49.69 C214.00,50.96 214.45,52.00 215.00,52.00 C215.57,52.00 216.00,49.14 216.00,45.43 C216.00,41.84 215.83,39.91 215.06,38.05 ZM 138.24 116.00 L 136.50 119.50 L 126.73 119.79 L 116.95 120.07 L 117.23 102.79 L 117.50 85.50 L 133.73 84.64 C142.66,84.16 150.62,84.02 151.43,84.34 C152.60,84.78 151.58,87.73 146.44,98.70 C142.89,106.29 139.20,114.07 138.24,116.00 ZM 119.30 154.75 C117.95,157.64 116.42,160.00 115.89,160.00 C114.65,160.00 97.73,125.32 98.23,123.80 C98.51,122.98 103.58,122.72 116.05,122.90 C125.65,123.04 133.67,123.33 133.88,123.55 C134.09,123.76 131.45,129.69 128.01,136.72 C124.56,143.75 120.65,151.86 119.30,154.75 ZM 70.54 75.31 C71.37,78.61 69.50,78.84 63.50,76.18 C61.30,75.21 57.47,73.82 55.00,73.11 C44.94,70.21 34.45,66.71 33.66,65.99 C32.68,65.09 34.96,60.42 37.92,57.29 C39.06,56.08 40.00,54.88 40.00,54.62 C40.00,53.61 51.18,38.00 51.91,38.00 C52.64,38.00 66.00,65.00 66.00,66.49 C66.00,66.88 66.87,68.41 67.93,69.91 C69.00,71.40 70.17,73.83 70.54,75.31 ZM 173.50 74.52 C162.04,78.31 161.00,78.49 161.00,76.72 C161.00,74.79 177.03,41.74 178.44,40.77 C179.02,40.36 179.93,40.17 180.45,40.33 C180.97,40.50 185.15,46.20 189.74,53.00 C196.31,62.75 197.80,65.59 196.79,66.47 C196.08,67.08 192.35,68.54 188.50,69.72 C184.65,70.91 177.90,73.07 173.50,74.52 ZM 154.09 116.13 C146.37,118.08 141.01,118.53 140.99,117.25 C140.95,115.23 156.39,86.00 157.49,86.00 C158.19,86.00 160.36,87.91 162.31,90.25 C164.26,92.59 168.81,97.63 172.43,101.46 C176.04,105.29 179.00,108.97 179.00,109.65 C179.00,111.06 177.97,111.39 168.50,113.04 C164.65,113.72 158.17,115.11 154.09,116.13 ZM 134.77 146.83 C128.87,151.32 123.83,155.00 123.56,155.00 C122.67,155.00 125.77,147.49 130.88,137.30 C133.70,131.68 136.00,126.69 136.00,126.20 C136.00,123.15 145.66,120.12 165.83,116.85 C172.46,115.77 174.01,116.05 171.82,117.92 C169.04,120.28 166.15,122.59 162.95,125.00 C161.13,126.38 157.70,129.07 155.34,131.00 C152.98,132.93 149.80,135.44 148.27,136.58 C146.75,137.72 140.67,142.34 134.77,146.83 ZM 94.50 58.21 C95.00,57.65 95.48,57.10 95.95,56.57 C106.13,45.10 110.49,40.19 109.42,38.22 C108.62,36.74 104.76,36.92 98.01,37.23 C97.60,37.25 97.17,37.27 96.73,37.29 C85.29,37.81 77.00,39.39 77.00,41.06 C77.00,41.45 74.97,43.83 72.50,46.34 C70.03,48.85 68.00,50.63 68.00,50.29 C68.00,49.95 67.78,49.88 67.52,50.14 C67.09,50.57 68.04,57.41 69.44,63.95 C69.81,65.67 70.90,68.44 72.22,71.13 C71.73,70.28 71.24,69.39 70.75,68.50 C65.49,58.87 56.00,38.51 56.00,36.83 C56.00,34.74 56.08,34.74 78.25,35.48 C90.49,35.89 103.43,36.51 107.00,36.86 L 113.50 37.50 L 107.50 44.05 C104.20,47.66 95.91,56.77 89.09,64.30 C88.78,64.64 88.48,64.98 88.18,65.31 C90.31,62.93 92.55,60.41 94.50,58.21 ZM 166.06 213.85 C133.50,213.76 108.94,213.44 110.50,213.12 C112.15,212.78 113.61,211.94 113.75,211.25 C113.93,210.34 112.01,209.99 106.75,209.98 C101.27,209.97 89.34,208.88 79.62,207.64 C96.11,208.98 128.20,208.91 138.00,207.17 C162.50,202.83 175.82,199.31 197.85,191.34 C204.65,188.88 210.39,187.05 210.61,187.28 C211.19,187.85 193.20,195.34 181.50,199.40 C169.50,203.55 145.56,209.44 134.50,210.96 C130.10,211.56 123.80,212.44 120.50,212.91 C117.06,213.40 133.94,213.74 166.06,213.85 ZM 42.89 150.64 C45.65,148.68 49.08,146.43 52.20,144.50 C47.83,147.21 42.84,150.56 40.00,152.82 C29.44,161.23 24.00,169.04 24.00,175.81 C24.00,187.95 41.37,199.64 68.32,205.89 C55.58,203.27 33.82,194.90 31.90,191.83 C31.57,191.30 30.67,190.77 29.90,190.66 C29.13,190.54 27.94,190.09 27.25,189.66 C24.12,187.71 27.26,193.63 31.35,197.40 C33.48,199.35 36.97,201.38 41.36,203.33 C40.28,202.86 39.23,202.39 38.23,201.91 C24.51,195.36 17.30,187.30 16.27,177.37 C15.90,173.71 16.01,172.01 17.49,168.54 C16.76,170.77 17.12,171.85 18.37,172.89 C20.35,174.53 22.32,173.44 23.92,169.82 C25.47,166.32 33.14,158.20 40.00,152.79 C40.61,152.31 41.30,151.79 42.07,151.23 C42.43,151.00 42.71,150.80 42.89,150.64 ZM 68.62 74.54 C69.54,72.16 64.80,63.66 61.75,62.21 C60.24,61.48 58.96,60.13 58.90,59.20 C58.84,58.17 58.51,58.49 58.06,60.00 C57.66,61.38 56.75,62.37 56.04,62.21 C55.15,62.01 54.95,62.67 55.38,64.39 C55.86,66.30 55.55,67.01 54.00,67.50 C51.08,68.43 51.52,71.57 54.75,72.84 C62.71,75.97 67.83,76.59 68.62,74.54 ZM 63.40 79.52 C57.92,77.68 50.60,76.00 46.54,76.00 C44.66,76.00 42.84,75.55 42.50,75.00 C42.16,74.45 41.30,74.00 40.58,74.00 C37.28,74.00 40.25,87.86 46.79,103.06 L 46.63 102.69 C45.29,99.67 43.88,96.14 43.49,94.85 C43.11,93.56 40.85,88.45 38.49,83.50 C36.12,78.55 33.89,73.49 33.53,72.26 C32.92,70.19 33.11,70.07 36.13,70.68 C37.92,71.03 46.39,73.67 54.94,76.54 C58.34,77.68 61.15,78.67 63.40,79.52 ZM 127.00 210.50 C125.45,208.63 124.87,208.63 122.44,210.47 C120.63,211.84 120.75,211.94 124.37,211.97 C127.70,212.00 128.07,211.79 127.00,210.50 ZM 150.00 181.47 C150.00,179.96 147.36,178.30 146.43,179.23 C146.17,179.50 146.24,180.45 146.58,181.36 C147.38,183.43 150.00,183.52 150.00,181.47 ZM 177.75 0.15 C152.90,0.26 137.37,0.63 139.50,1.07 C140.66,1.31 143.16,1.79 146.18,2.36 C145.41,2.25 144.64,2.14 143.87,2.03 C142.59,1.85 141.30,1.68 140.00,1.52 C136.68,1.11 134.93,0.82 136.09,0.62 C141.20,0.37 155.11,0.22 177.75,0.15 ZM 90.82 1.82 C92.63,1.48 93.99,1.17 94.50,0.96 C95.23,0.66 86.20,0.38 72.22,0.21 C85.72,0.30 94.28,0.43 97.98,0.62 C98.96,0.82 96.73,1.12 92.81,1.58 C92.16,1.65 91.49,1.73 90.82,1.82 ZM 191.43 23.31 C182.11,17.29 170.15,12.58 156.56,9.35 C167.63,11.96 177.59,15.55 185.86,20.02 C186.41,20.32 186.95,20.61 187.49,20.88 C188.82,21.65 190.14,22.46 191.43,23.31 ZM 30.85 16.01 C28.55,16.88 27.17,17.50 27.32,17.65 C27.07,17.40 28.97,16.59 32.11,15.50 C31.67,15.67 31.25,15.84 30.85,16.01 ZM 26.14 154.58 C27.63,152.86 29.29,151.14 31.16,149.39 C31.05,149.51 30.95,149.63 30.85,149.75 C29.12,151.39 27.54,153.00 26.14,154.58 ZM 166.03 6.46 C169.02,7.25 171.91,8.12 174.70,9.07 C174.48,8.99 174.26,8.92 174.04,8.85 C171.46,8.00 168.79,7.20 166.03,6.46 ZM 66.28 89.42 C68.59,86.85 70.48,84.06 70.50,83.22 L 70.50 83.23 C70.50,84.04 68.60,86.83 66.28,89.42 ZM 43.58 139.37 C44.43,138.76 45.30,138.15 46.19,137.53 C45.38,138.09 44.58,138.65 43.80,139.21 C43.73,139.27 43.65,139.32 43.58,139.37 Z" fill="rgb(241,228,157)"/>
<path d="M 0.00 107.00 L 0.00 0.00 L 48.25 0.07 C74.79,0.10 95.60,0.51 94.50,0.96 C93.40,1.42 88.33,2.33 83.24,2.98 C78.15,3.63 68.47,5.44 61.74,6.99 C48.50,10.04 26.52,16.85 27.32,17.65 C27.59,17.92 29.99,17.40 32.66,16.49 C41.33,13.53 65.23,8.15 77.00,6.50 C122.20,0.18 167.96,7.22 193.00,24.35 C204.89,32.49 209.86,39.39 210.73,48.98 C211.14,53.47 210.80,55.46 209.08,58.85 C206.24,64.42 200.22,71.02 198.56,70.38 C197.38,69.93 180.45,74.81 175.50,77.03 C174.40,77.52 170.80,78.67 167.50,79.58 C164.20,80.50 161.14,81.46 160.70,81.72 C159.49,82.42 162.10,85.93 170.20,94.46 C174.21,98.70 177.89,103.00 178.38,104.02 C179.65,106.73 182.24,107.40 183.69,105.40 C184.38,104.47 186.16,100.51 187.65,96.60 C190.71,88.59 191.83,87.32 204.77,77.15 C210.11,72.96 214.31,66.92 217.14,59.37 C219.09,54.14 219.21,52.85 218.25,47.23 C214.85,27.41 190.01,10.43 155.00,4.01 C148.68,2.85 141.70,1.52 139.50,1.07 C137.16,0.58 156.29,0.19 185.75,0.12 L 236.00 0.00 L 236.00 107.00 L 236.00 214.00 L 175.25 213.88 C137.20,213.80 116.74,213.44 120.50,212.91 C123.80,212.44 130.10,211.56 134.50,210.96 C145.56,209.44 169.50,203.55 181.50,199.40 C193.20,195.34 211.19,187.85 210.61,187.28 C210.39,187.05 204.65,188.88 197.85,191.34 C175.82,199.31 162.50,202.83 138.00,207.17 C126.31,209.24 82.88,208.94 72.09,206.72 C43.00,200.72 24.00,188.50 24.00,175.81 C24.00,169.04 29.44,161.23 40.00,152.82 C45.50,148.44 59.04,140.00 60.55,140.00 C61.70,140.00 63.10,142.90 69.76,159.00 C80.00,183.76 81.49,187.00 82.65,187.00 C83.33,187.00 84.14,186.58 84.46,186.07 C84.77,185.56 91.11,180.54 98.54,174.93 C105.97,169.32 112.27,164.37 112.54,163.93 C113.15,162.94 85.80,141.29 73.00,132.65 C71.07,131.35 67.93,128.80 66.00,127.00 C61.25,122.54 55.11,118.56 54.27,119.39 C53.90,119.77 54.18,121.52 54.90,123.29 C57.44,129.49 57.15,129.95 46.19,137.53 C31.96,147.37 23.79,155.62 19.32,164.67 C16.12,171.14 15.78,172.57 16.27,177.37 C17.30,187.30 24.51,195.36 38.23,201.91 C47.77,206.47 61.30,210.46 73.79,212.41 C81.95,213.69 79.88,213.78 41.25,213.89 L 0.00 214.00 L 0.00 107.00 ZM 152.68 181.73 C156.70,172.10 170.79,138.55 172.52,134.50 C177.05,123.87 178.78,118.98 178.15,118.59 C177.43,118.15 163.76,128.05 151.50,137.90 C147.65,141.00 140.90,146.19 136.50,149.45 C129.52,154.61 126.89,156.66 120.10,162.22 C118.94,163.16 119.38,163.95 122.60,166.73 C124.74,168.58 128.52,171.52 131.00,173.25 C133.48,174.99 138.40,178.79 141.94,181.70 C145.49,184.62 148.86,186.99 149.44,186.98 C150.03,186.97 151.48,184.61 152.68,181.73 ZM 119.30 154.75 C120.65,151.86 124.56,143.75 128.01,136.72 C131.45,129.69 134.09,123.76 133.88,123.55 C133.67,123.33 125.65,123.04 116.05,122.90 C103.58,122.72 98.51,122.98 98.23,123.80 C97.73,125.32 114.65,160.00 115.89,160.00 C116.42,160.00 117.95,157.64 119.30,154.75 ZM 108.77 154.25 C100.89,137.35 93.18,122.87 91.82,122.44 C90.87,122.14 87.93,121.49 85.29,120.99 C82.66,120.50 76.45,119.16 71.50,118.02 C56.89,114.65 56.22,115.33 66.35,123.25 C71.10,126.96 75.25,130.00 75.57,130.00 C75.89,130.00 78.04,131.58 80.33,133.51 C86.75,138.91 104.32,152.52 106.53,153.80 C108.89,155.17 109.23,155.23 108.77,154.25 ZM 134.77 146.83 C140.67,142.34 146.75,137.72 148.27,136.58 C149.80,135.44 152.98,132.93 155.34,131.00 C157.70,129.07 161.13,126.38 162.95,125.00 C166.15,122.59 169.04,120.28 171.82,117.92 C174.01,116.05 172.46,115.77 165.83,116.85 C145.66,120.12 136.00,123.15 136.00,126.20 C136.00,126.69 133.70,131.68 130.88,137.30 C125.77,147.49 122.67,155.00 123.56,155.00 C123.83,155.00 128.87,151.32 134.77,146.83 ZM 114.00 102.61 L 114.00 85.23 L 96.95 84.50 C87.57,84.10 79.66,84.01 79.36,84.31 C79.06,84.61 82.55,92.51 87.12,101.88 C96.37,120.87 94.92,119.58 107.25,119.85 L 114.00 120.00 L 114.00 102.61 ZM 138.24 116.00 C139.20,114.07 142.89,106.29 146.44,98.70 C151.58,87.73 152.60,84.78 151.43,84.34 C150.62,84.02 142.66,84.16 133.73,84.64 L 117.50 85.50 L 117.23 102.79 L 116.95 120.07 L 126.73 119.79 L 136.50 119.50 L 138.24 116.00 ZM 90.47 116.91 C89.11,112.61 75.94,86.00 75.18,86.00 C73.81,86.00 71.58,88.18 62.14,98.68 C57.11,104.27 53.00,109.33 53.00,109.91 C53.00,110.49 54.01,111.18 55.25,111.46 C63.42,113.25 89.65,118.82 90.32,118.90 C90.77,118.96 90.84,118.06 90.47,116.91 ZM 154.09 116.13 C158.17,115.11 164.65,113.72 168.50,113.04 C177.97,111.39 179.00,111.06 179.00,109.65 C179.00,108.97 176.04,105.29 172.43,101.46 C168.81,97.63 164.26,92.59 162.31,90.25 C160.36,87.91 158.19,86.00 157.49,86.00 C156.39,86.00 140.95,115.23 140.99,117.25 C141.01,118.53 146.37,118.08 154.09,116.13 ZM 66.28 89.42 C68.60,86.83 70.50,84.04 70.50,83.23 C70.50,82.21 65.65,80.13 54.94,76.54 C46.39,73.67 37.92,71.03 36.13,70.68 C33.11,70.07 32.92,70.19 33.53,72.26 C33.89,73.49 36.12,78.55 38.49,83.50 C40.85,88.45 43.11,93.56 43.49,94.85 C43.88,96.14 45.29,99.67 46.63,102.69 L 49.06 108.18 L 55.56 101.16 C59.13,97.30 63.96,92.02 66.28,89.42 ZM 152.07 80.46 C152.67,80.09 151.30,77.84 148.80,75.10 C146.44,72.50 140.90,66.35 136.50,61.44 C124.35,47.86 116.70,39.92 116.06,40.23 C114.07,41.16 80.99,78.03 80.66,79.68 C80.57,80.13 84.78,80.79 90.00,81.13 C101.44,81.90 150.60,81.36 152.07,80.46 ZM 70.54 75.31 C70.17,73.83 69.00,71.40 67.93,69.91 C66.87,68.41 66.00,66.88 66.00,66.49 C66.00,65.00 52.64,38.00 51.91,38.00 C51.18,38.00 40.00,53.61 40.00,54.62 C40.00,54.88 39.06,56.08 37.92,57.29 C34.96,60.42 32.68,65.09 33.66,65.99 C34.45,66.71 44.94,70.21 55.00,73.11 C57.47,73.82 61.30,75.21 63.50,76.18 C69.50,78.84 71.37,78.61 70.54,75.31 ZM 89.09 64.30 C95.91,56.77 104.20,47.66 107.50,44.05 L 113.50 37.50 L 107.00 36.86 C103.43,36.51 90.49,35.89 78.25,35.48 C56.08,34.74 56.00,34.74 56.00,36.83 C56.00,38.51 65.49,58.87 70.75,68.50 C73.37,73.28 76.18,78.00 76.42,78.00 C76.56,78.00 82.26,71.84 89.09,64.30 ZM 166.59 57.51 C171.76,46.91 176.00,37.49 176.00,36.57 C176.00,35.05 174.20,34.97 155.25,35.58 C143.84,35.95 130.90,36.53 126.50,36.87 L 118.50 37.50 L 129.00 49.01 C134.77,55.34 142.65,64.11 146.49,68.51 C154.31,77.45 155.03,78.10 156.29,77.32 C156.77,77.02 161.41,68.11 166.59,57.51 ZM 173.50 74.52 C177.90,73.07 184.65,70.91 188.50,69.72 C192.35,68.54 196.08,67.08 196.79,66.47 C197.80,65.59 196.31,62.75 189.74,53.00 C185.15,46.20 180.97,40.50 180.45,40.33 C179.93,40.17 179.02,40.36 178.44,40.77 C177.03,41.74 161.00,74.79 161.00,76.72 C161.00,78.49 162.04,78.31 173.50,74.52 Z" fill="rgb(254,253,249)"/>
</g>
</svg>